# File created by Blade
# Date/Time:  Thu Jan 22 16:16:06 2015
# Frame Rate: 120.000 fps
#------------------------------------------------------
:FULLY-SPECIFIED
:DEGREES
515
root -0.755328 33.938753 -6.161783 52.836719 -33.420611 -1.900224
RightUpLeg -80.095655 -2.907972 -19.710745
RightLeg 24.868453 -0.000000 -0.000000
RightFoot -6.041640 -13.265780 26.842842
RightToeBase 14.301934 -0.000000 -0.000000
LeftUpLeg -43.766584 39.681384 -3.197332
LeftLeg -6.179657 -0.000000 0.000000
LeftFoot -0.915156 19.114320 -40.180569
LeftToeBase 12.175016 -0.000000 -0.000000
Spine 77.186989 -13.774608 -4.161571
RightShoulder 12.760695 14.951866 -36.513409
RightArm 63.213317 30.557505 33.545133
RightForeArm -8.826613 -0.000000 27.863486
RightHand 10.948429 -0.000000 -14.087644
RightHandThumb1 -24.326973 -0.000000 -32.862282
LeftShoulder 7.796128 -10.253293 46.702579
LeftArm 78.712602 -29.334983 -39.538742
LeftForeArm 72.383460 -0.000000 13.081940
LeftHand -13.853150 -0.000000 -0.744767
LeftHandThumb1 -26.253704 0.000000 33.147579
Head -1.326944 17.983443 6.467510
516
root -0.757630 33.937503 -6.173340 52.752415 -33.421307 -1.869795
RightUpLeg -80.060597 -2.923216 -19.676917
RightLeg 24.909113 -0.000000 -0.000000
RightFoot -6.053027 -13.231040 26.714520
RightToeBase 14.467771 -0.000000 -0.000000
LeftUpLeg -43.761256 39.684414 -3.172026
LeftLeg -6.060536 -0.000000 0.000000
LeftFoot -0.921600 19.041745 -40.132736
LeftToeBase 12.193485 -0.000000 -0.000000
Spine 77.159649 -13.827014 -4.198296
RightShoulder 12.739310 15.044654 -36.513375
RightArm 63.272668 30.458847 33.592857
RightForeArm -8.990923 0.000000 27.927684
RightHand 10.908037 0.000000 -13.699456
RightHandThumb1 -24.326973 -0.000000 -32.862282
LeftShoulder 7.833700 -10.357317 46.711452
LeftArm 78.532951 -29.203187 -39.572509
LeftForeArm 72.407448 0.000000 13.168704
LeftHand -13.804643 0.000000 -0.845682
LeftHandThumb1 -26.253704 0.000000 33.147579
Head -1.656994 18.000305 6.339357
517
root -0.760209 33.934992 -6.185395 52.669185 -33.432076 -1.842443
RightUpLeg -80.038222 -2.925618 -19.660450
RightLeg 24.967884 -0.000000 -0.000000
RightFoot -6.077060 -13.152742 26.715668
RightToeBase 14.451699 -0.000000 -0.000000
LeftUpLeg -43.688653 39.651050 -3.087941
LeftLeg -5.991607 -0.000000 0.000000
LeftFoot -0.976032 19.036322 -40.156235
LeftToeBase 12.217435 -0.000000 -0.000000
Spine 77.131031 -13.872620 -4.247057
RightShoulder 12.707912 15.064782 -36.531989
RightArm 63.325978 30.367788 33.526270
RightForeArm -9.344870 -0.000000 27.971449
RightHand 10.783215 -0.000000 -13.054885
RightHandThumb1 -24.326973 -0.000000 -32.862282
LeftShoulder 7.876486 -10.470990 46.695332
LeftArm 78.323015 -29.063792 -39.533975
LeftForeArm 72.315907 -0.000000 13.271413
LeftHand -13.720679 -0.000000 -1.141257
LeftHandThumb1 -26.253704 0.000000 33.147579
Head -1.951021 18.139883 6.181299
518
root -0.764701 33.930357 -6.197669 52.573358 -33.428919 -1.795152
RightUpLeg -80.015886 -2.880908 -19.783787
RightLeg 25.071655 -0.000000 -0.000000
RightFoot -6.216448 -13.224036 26.649602
RightToeBase 14.569869 -0.000000 -0.000000
LeftUpLeg -43.645854 39.635466 -3.043363
LeftLeg -5.911372 -0.000000 0.000000
LeftFoot -0.992516 18.973491 -40.197838
LeftToeBase 12.177117 -0.000000 -0.000000
Spine 77.071961 -13.932867 -4.264618
RightShoulder 12.706201 15.033404 -36.553961
RightArm 63.382315 30.325397 33.495381
RightForeArm -9.705165 -0.000000 27.972812
RightHand 10.766503 -0.000000 -12.820704
RightHandThumb1 -24.326973 -0.000000 -32.862282
LeftShoulder 7.985718 -10.580852 46.660623
LeftArm 78.109341 -28.951964 -39.526822
LeftForeArm 72.495073 -0.000000 13.352690
LeftHand -13.617858 -0.000000 -1.245004
LeftHandThumb1 -26.253704 0.000000 33.147579
Head -2.106769 18.330162 6.202863
519
root -0.772839 33.924886 -6.210300 52.456059 -33.438636 -1.768966
RightUpLeg -79.982066 -2.843738 -19.811664
RightLeg 25.182163 -0.000000 -0.000000
RightFoot -6.256833 -13.122670 26.848962
RightToeBase 14.343757 -0.000000 -0.000000
LeftUpLeg -43.620834 39.709475 -3.049267
LeftLeg -5.809401 -0.000000 0.000000
LeftFoot -0.968383 18.845044 -40.200808
LeftToeBase 12.255085 -0.000000 -0.000000
Spine 77.098217 -13.923584 -4.295709
RightShoulder 12.611270 15.025397 -36.554728
RightArm 63.485606 30.249466 33.476492
RightForeArm -9.962803 0.000000 27.959069
RightHand 10.672851 -0.000000 -12.962937
RightHandThumb1 -24.326973 -0.000000 -32.862282
LeftShoulder 8.003455 -10.718207 46.714403
LeftArm 77.965481 -28.813161 -39.602677
LeftForeArm 72.739587 -0.000000 13.451235
LeftHand -13.370797 -0.000000 -1.773062
LeftHandThumb1 -26.253704 0.000000 33.147579
Head -2.481777 18.344176 6.046620
